<svg xmlns="http://www.w3.org/2000/svg" xmlns:xlink="http://www.w3.org/1999/xlink" contentStyleType="text/css" height="505px" preserveAspectRatio="none" style="width:1517px;height:505px;background:#FFFFFF;" version="1.1" viewBox="0 0 1517 505" width="1517px" zoomAndPan="magnify"><defs/><g><!--class users--><g id="elem_users"><rect codeLine="1" fill="#F1F1F1" height="113.1875" id="users" rx="2.5" ry="2.5" style="stroke:#181818;stroke-width:0.5;" width="203.0508" x="1191.5" y="7"/><ellipse cx="1269.8604" cy="23" fill="#ADD1B2" rx="11" ry="11" style="stroke:#181818;stroke-width:1;"/><path d="M1273.9697,29 L1266.251,29 L1266.251,16.6094 L1273.9697,16.6094 L1273.9697,18.7656 L1268.7041,18.7656 L1268.7041,21.4375 L1273.4697,21.4375 L1273.4697,23.5938 L1268.7041,23.5938 L1268.7041,26.8438 L1273.9697,26.8438 L1273.9697,29 Z " fill="#000000"/><text fill="#000000" font-family="sans-serif" font-size="14" lengthAdjust="spacing" textLength="37.8301" x="1290.3604" y="27.8467">users</text><line style="stroke:#181818;stroke-width:0.5;" x1="1192.5" x2="1393.5508" y1="39" y2="39"/><ellipse cx="1202.5" cy="52.6484" fill="#000000" rx="3" ry="3" style="stroke:#000000;stroke-width:1;"/><text fill="#000000" font-family="sans-serif" font-size="14" lengthAdjust="spacing" textLength="82.5439" x="1211.5" y="55.9951">id : INT [PK]</text><line style="stroke:#181818;stroke-width:1;" x1="1192.5" x2="1393.5508" y1="63.2969" y2="63.2969"/><text fill="#000000" font-family="sans-serif" font-size="14" lengthAdjust="spacing" textLength="191.0508" x="1197.5" y="80.292">email : VARCHAR [UNIQUE]</text><text fill="#000000" font-family="sans-serif" font-size="14" lengthAdjust="spacing" textLength="189.4375" x="1197.5" y="96.5889">password_hash : VARCHAR</text><text fill="#000000" font-family="sans-serif" font-size="14" lengthAdjust="spacing" textLength="108.9307" x="1197.5" y="112.8857">role : VARCHAR</text></g><!--class organizations--><g id="elem_organizations"><rect codeLine="9" fill="#F1F1F1" height="96.8906" id="organizations" rx="2.5" ry="2.5" style="stroke:#181818;stroke-width:0.5;" width="171.6807" x="636" y="15"/><ellipse cx="671.2913" cy="31" fill="#ADD1B2" rx="11" ry="11" style="stroke:#181818;stroke-width:1;"/><path d="M675.4007,37 L667.6819,37 L667.6819,24.6094 L675.4007,24.6094 L675.4007,26.7656 L670.1351,26.7656 L670.1351,29.4375 L674.9007,29.4375 L674.9007,31.5938 L670.1351,31.5938 L670.1351,34.8438 L675.4007,34.8438 L675.4007,37 Z " fill="#000000"/><text fill="#000000" font-family="sans-serif" font-size="14" lengthAdjust="spacing" textLength="94.5889" x="689.8005" y="35.8467">organizations</text><line style="stroke:#181818;stroke-width:0.5;" x1="637" x2="806.6807" y1="47" y2="47"/><ellipse cx="647" cy="60.6484" fill="#000000" rx="3" ry="3" style="stroke:#000000;stroke-width:1;"/><text fill="#000000" font-family="sans-serif" font-size="14" lengthAdjust="spacing" textLength="82.5439" x="656" y="63.9951">id : INT [PK]</text><line style="stroke:#181818;stroke-width:1;" x1="637" x2="806.6807" y1="71.2969" y2="71.2969"/><text fill="#000000" font-family="sans-serif" font-size="14" lengthAdjust="spacing" textLength="121.8096" x="642" y="88.292">name : VARCHAR</text><text fill="#000000" font-family="sans-serif" font-size="14" lengthAdjust="spacing" textLength="159.6807" x="642" y="104.5889">created_at : DATETIME</text></g><!--class feature_flags--><g id="elem_feature_flags"><rect codeLine="16" fill="#F1F1F1" height="129.4844" id="feature_flags" rx="2.5" ry="2.5" style="stroke:#181818;stroke-width:0.5;" width="325.9473" x="7" y="180"/><ellipse cx="120.0083" cy="196" fill="#ADD1B2" rx="11" ry="11" style="stroke:#181818;stroke-width:1;"/><path d="M124.1177,202 L116.3989,202 L116.3989,189.6094 L124.1177,189.6094 L124.1177,191.7656 L118.8521,191.7656 L118.8521,194.4375 L123.6177,194.4375 L123.6177,196.5938 L118.8521,196.5938 L118.8521,199.8438 L124.1177,199.8438 L124.1177,202 Z " fill="#000000"/><text fill="#000000" font-family="sans-serif" font-size="14" lengthAdjust="spacing" textLength="91.4307" x="140.5083" y="200.8467">feature_flags</text><line style="stroke:#181818;stroke-width:0.5;" x1="8" x2="331.9473" y1="212" y2="212"/><ellipse cx="18" cy="225.6484" fill="#000000" rx="3" ry="3" style="stroke:#000000;stroke-width:1;"/><text fill="#000000" font-family="sans-serif" font-size="14" lengthAdjust="spacing" textLength="82.5439" x="27" y="228.9951">id : INT [PK]</text><line style="stroke:#181818;stroke-width:1;" x1="8" x2="331.9473" y1="236.2969" y2="236.2969"/><text fill="#000000" font-family="sans-serif" font-size="14" lengthAdjust="spacing" textLength="121.8096" x="13" y="253.292">name : VARCHAR</text><text fill="#000000" font-family="sans-serif" font-size="14" lengthAdjust="spacing" textLength="126.998" x="13" y="269.5889">description : TEXT</text><text fill="#000000" font-family="sans-serif" font-size="14" lengthAdjust="spacing" textLength="124.9746" x="13" y="285.8857">status : BOOLEAN</text><text fill="#000000" font-family="sans-serif" font-size="14" lengthAdjust="spacing" textLength="313.9473" x="13" y="302.1826">organization_id : INT [FK -&gt; organizations.id]</text></g><!--class audit_logs--><g id="elem_audit_logs"><rect codeLine="25" fill="#F1F1F1" height="129.4844" id="audit_logs" rx="2.5" ry="2.5" style="stroke:#181818;stroke-width:0.5;" width="319.6309" x="679" y="369"/><ellipse cx="798.8887" cy="385" fill="#ADD1B2" rx="11" ry="11" style="stroke:#181818;stroke-width:1;"/><path d="M802.998,391 L795.2793,391 L795.2793,378.6094 L802.998,378.6094 L802.998,380.7656 L797.7324,380.7656 L797.7324,383.4375 L802.498,383.4375 L802.498,385.5938 L797.7324,385.5938 L797.7324,388.8438 L802.998,388.8438 L802.998,391 Z " fill="#000000"/><text fill="#000000" font-family="sans-serif" font-size="14" lengthAdjust="spacing" textLength="71.3535" x="819.3887" y="389.8467">audit_logs</text><line style="stroke:#181818;stroke-width:0.5;" x1="680" x2="997.6309" y1="401" y2="401"/><ellipse cx="690" cy="414.6484" fill="#000000" rx="3" ry="3" style="stroke:#000000;stroke-width:1;"/><text fill="#000000" font-family="sans-serif" font-size="14" lengthAdjust="spacing" textLength="82.5439" x="699" y="417.9951">id : INT [PK]</text><line style="stroke:#181818;stroke-width:1;" x1="680" x2="997.6309" y1="425.2969" y2="425.2969"/><text fill="#000000" font-family="sans-serif" font-size="14" lengthAdjust="spacing" textLength="200.4297" x="685" y="442.292">user_id : INT [FK -&gt; users.id]</text><text fill="#000000" font-family="sans-serif" font-size="14" lengthAdjust="spacing" textLength="307.6309" x="685" y="458.5889">feature_flag_id : INT [FK -&gt; feature_flags.id]</text><text fill="#000000" font-family="sans-serif" font-size="14" lengthAdjust="spacing" textLength="125.2002" x="685" y="474.8857">action : VARCHAR</text><text fill="#000000" font-family="sans-serif" font-size="14" lengthAdjust="spacing" textLength="160.4941" x="685" y="491.1826">timestamp : DATETIME</text></g><!--class access_controls--><g id="elem_access_controls"><rect codeLine="34" fill="#F1F1F1" height="113.1875" id="access_controls" rx="2.5" ry="2.5" style="stroke:#181818;stroke-width:0.5;" width="325.9473" x="1130" y="188"/><ellipse cx="1233.5713" cy="204" fill="#ADD1B2" rx="11" ry="11" style="stroke:#181818;stroke-width:1;"/><path d="M1237.6807,210 L1229.9619,210 L1229.9619,197.6094 L1237.6807,197.6094 L1237.6807,199.7656 L1232.415,199.7656 L1232.415,202.4375 L1237.1807,202.4375 L1237.1807,204.5938 L1232.415,204.5938 L1232.415,207.8438 L1237.6807,207.8438 L1237.6807,210 Z " fill="#000000"/><text fill="#000000" font-family="sans-serif" font-size="14" lengthAdjust="spacing" textLength="110.3047" x="1254.0713" y="208.8467">access_controls</text><line style="stroke:#181818;stroke-width:0.5;" x1="1131" x2="1454.9473" y1="220" y2="220"/><ellipse cx="1141" cy="233.6484" fill="#000000" rx="3" ry="3" style="stroke:#000000;stroke-width:1;"/><text fill="#000000" font-family="sans-serif" font-size="14" lengthAdjust="spacing" textLength="82.5439" x="1150" y="236.9951">id : INT [PK]</text><line style="stroke:#181818;stroke-width:1;" x1="1131" x2="1454.9473" y1="244.2969" y2="244.2969"/><text fill="#000000" font-family="sans-serif" font-size="14" lengthAdjust="spacing" textLength="200.4297" x="1136" y="261.292">user_id : INT [FK -&gt; users.id]</text><text fill="#000000" font-family="sans-serif" font-size="14" lengthAdjust="spacing" textLength="313.9473" x="1136" y="277.5889">organization_id : INT [FK -&gt; organizations.id]</text><text fill="#000000" font-family="sans-serif" font-size="14" lengthAdjust="spacing" textLength="166.0996" x="1136" y="293.8857">permissions : VARCHAR</text></g><!--class user_organization--><g id="elem_user_organization"><rect codeLine="42" fill="#F1F1F1" height="80.5938" id="user_organization" rx="2.5" ry="2.5" style="stroke:#181818;stroke-width:0.5;" width="366.4707" x="729" y="204"/><ellipse cx="845.5698" cy="220" fill="#ADD1B2" rx="11" ry="11" style="stroke:#181818;stroke-width:1;"/><path d="M849.6792,226 L841.9604,226 L841.9604,213.6094 L849.6792,213.6094 L849.6792,215.7656 L844.4136,215.7656 L844.4136,218.4375 L849.1792,218.4375 L849.1792,220.5938 L844.4136,220.5938 L844.4136,223.8438 L849.6792,223.8438 L849.6792,226 Z " fill="#000000"/><text fill="#000000" font-family="sans-serif" font-size="14" lengthAdjust="spacing" textLength="124.8311" x="866.0698" y="224.8467">user_organization</text><line style="stroke:#181818;stroke-width:0.5;" x1="730" x2="1094.4707" y1="236" y2="236"/><ellipse cx="740" cy="249.6484" fill="#000000" rx="3" ry="3" style="stroke:#000000;stroke-width:1;"/><text fill="#000000" font-family="sans-serif" font-size="14" lengthAdjust="spacing" textLength="226.9531" x="749" y="252.9951">user_id : INT [PK, FK -&gt; users.id]</text><ellipse cx="740" cy="265.9453" fill="#000000" rx="3" ry="3" style="stroke:#000000;stroke-width:1;"/><text fill="#000000" font-family="sans-serif" font-size="14" lengthAdjust="spacing" textLength="340.4707" x="749" y="269.292">organization_id : INT [PK, FK -&gt; organizations.id]</text><line style="stroke:#181818;stroke-width:0.5;" x1="730" x2="1094.4707" y1="276.5938" y2="276.5938"/></g><!--class organization_settings--><g id="elem_organization_settings"><rect codeLine="47" fill="#F1F1F1" height="113.1875" id="organization_settings" rx="2.5" ry="2.5" style="stroke:#181818;stroke-width:0.5;" width="325.9473" x="368" y="188"/><ellipse cx="451.6616" cy="204" fill="#ADD1B2" rx="11" ry="11" style="stroke:#181818;stroke-width:1;"/><path d="M455.771,210 L448.0522,210 L448.0522,197.6094 L455.771,197.6094 L455.771,199.7656 L450.5054,199.7656 L450.5054,202.4375 L455.271,202.4375 L455.271,204.5938 L450.5054,204.5938 L450.5054,207.8438 L455.771,207.8438 L455.771,210 Z " fill="#000000"/><text fill="#000000" font-family="sans-serif" font-size="14" lengthAdjust="spacing" textLength="150.124" x="472.1616" y="208.8467">organization_settings</text><line style="stroke:#181818;stroke-width:0.5;" x1="369" x2="692.9473" y1="220" y2="220"/><ellipse cx="379" cy="233.6484" fill="#000000" rx="3" ry="3" style="stroke:#000000;stroke-width:1;"/><text fill="#000000" font-family="sans-serif" font-size="14" lengthAdjust="spacing" textLength="82.5439" x="388" y="236.9951">id : INT [PK]</text><line style="stroke:#181818;stroke-width:1;" x1="369" x2="692.9473" y1="244.2969" y2="244.2969"/><text fill="#000000" font-family="sans-serif" font-size="14" lengthAdjust="spacing" textLength="313.9473" x="374" y="261.292">organization_id : INT [FK -&gt; organizations.id]</text><text fill="#000000" font-family="sans-serif" font-size="14" lengthAdjust="spacing" textLength="162.6475" x="374" y="277.5889">setting_key : VARCHAR</text><text fill="#000000" font-family="sans-serif" font-size="14" lengthAdjust="spacing" textLength="142.9326" x="374" y="293.8857">setting_value : TEXT</text></g><!--link users to user_organization--><g id="link_users_user_organization"><path codeLine="56" d="M1175.1089,119.8851 C1114.1589,148.5251 1061.0806,173.4579 1003.5106,200.5079 " fill="none" id="users-user_organization" style="stroke:#181818;stroke-width:1;"/><line style="stroke:#181818;stroke-width:1;" x1="1184.1595" x2="1188.8483" y1="115.6323" y2="106.7996"/><line style="stroke:#181818;stroke-width:1;" x1="1184.1595" x2="1193.9517" y1="115.6323" y2="117.6604"/><line style="stroke:#181818;stroke-width:1;" x1="1184.1595" x2="1191.4" y1="115.6323" y2="112.23"/><ellipse cx="1178.7291" cy="118.1839" fill="none" rx="4" ry="4" style="stroke:#181818;stroke-width:1;"/><line style="stroke:#181818;stroke-width:1;" x1="1001.5913" x2="998.1892" y1="205.8292" y2="198.5887"/><line style="stroke:#181818;stroke-width:1;" x1="1004.3065" x2="1000.9045" y1="204.5535" y2="197.3129"/><line style="stroke:#181818;stroke-width:1;" x1="1003.5106" x2="996.27" y1="200.5079" y2="203.91"/></g><!--link organizations to user_organization--><g id="link_organizations_user_organization"><path codeLine="57" d="M786.0223,124.8122 C816.3623,153.3922 835.4768,171.4045 864.1068,198.3745 " fill="none" id="organizations-user_organization" style="stroke:#181818;stroke-width:1;"/><line style="stroke:#181818;stroke-width:1;" x1="778.7432" x2="768.8059" y1="117.9554" y2="116.8374"/><line style="stroke:#181818;stroke-width:1;" x1="778.7432" x2="777.0341" y1="117.9554" y2="108.1026"/><line style="stroke:#181818;stroke-width:1;" x1="778.7432" x2="772.92" y1="117.9554" y2="112.47"/><ellipse cx="783.1107" cy="122.0695" fill="none" rx="4" ry="4" style="stroke:#181818;stroke-width:1;"/><line style="stroke:#181818;stroke-width:1;" x1="869.7612" x2="864.2757" y1="198.2057" y2="204.0288"/><line style="stroke:#181818;stroke-width:1;" x1="867.5775" x2="862.092" y1="196.1486" y2="201.9717"/><line style="stroke:#181818;stroke-width:1;" x1="864.1068" x2="869.93" y1="198.3745" y2="203.86"/></g><!--link organizations to feature_flags--><g id="link_organizations_feature_flags"><path codeLine="58" d="M627.9715,92.6124 C552.3915,115.4324 447.41,147.71 350,180 C344.5,181.82 355.9581,177.9535 350.3181,179.8535 " fill="none" id="organizations-feature_flags" style="stroke:#181818;stroke-width:1;"/><line style="stroke:#181818;stroke-width:1;" x1="630.6446" x2="632.9569" y1="87.6269" y2="95.2854"/><line style="stroke:#181818;stroke-width:1;" x1="627.7726" x2="630.085" y1="88.494" y2="96.1526"/><line style="stroke:#181818;stroke-width:1;" x1="627.9715" x2="635.63" y1="92.6124" y2="90.3"/><line style="stroke:#181818;stroke-width:1;" x1="340.8414" x2="335.1755" y1="183.046" y2="191.286"/><line style="stroke:#181818;stroke-width:1;" x1="340.8414" x2="331.3445" y1="183.046" y2="179.914"/><line style="stroke:#181818;stroke-width:1;" x1="340.8414" x2="333.26" y1="183.046" y2="185.6"/><ellipse cx="346.5274" cy="181.1305" fill="none" rx="4" ry="4" style="stroke:#181818;stroke-width:1;"/></g><!--link users to audit_logs--><g id="link_users_audit_logs"><path codeLine="59" d="M1401.5994,109.5678 C1432.7294,127.5278 1456.44,147.97 1474,180 C1501.56,230.28 1510.47,264.76 1474,309 C1414.93,380.66 1185.1388,409.9132 1017.1288,422.6132 " fill="none" id="users-audit_logs" style="stroke:#181818;stroke-width:1;"/><line style="stroke:#181818;stroke-width:1;" x1="1396.1358" x2="1400.1336" y1="111.0336" y2="104.1042"/><line style="stroke:#181818;stroke-width:1;" x1="1398.7343" x2="1402.7322" y1="112.5328" y2="105.6034"/><line style="stroke:#181818;stroke-width:1;" x1="1401.5994" x2="1394.67" y1="109.5678" y2="105.57"/><line style="stroke:#181818;stroke-width:1;" x1="1007.1572" x2="999.6323" y1="423.367" y2="429.9529"/><line style="stroke:#181818;stroke-width:1;" x1="1007.1572" x2="998.7277" y1="423.367" y2="417.9871"/><line style="stroke:#181818;stroke-width:1;" x1="1007.1572" x2="999.18" y1="423.367" y2="423.97"/><ellipse cx="1013.1402" cy="422.9147" fill="none" rx="4" ry="4" style="stroke:#181818;stroke-width:1;"/></g><!--link feature_flags to audit_logs--><g id="link_feature_flags_audit_logs"><path codeLine="60" d="M340.7689,306.1984 C346.4389,307.9884 344.45,307.32 350,309 C458.76,341.84 565.3798,368.9495 661.3598,391.8095 " fill="none" id="feature_flags-audit_logs" style="stroke:#181818;stroke-width:1;"/><line style="stroke:#181818;stroke-width:1;" x1="335.7502" x2="338.1586" y1="308.8086" y2="301.1798"/><line style="stroke:#181818;stroke-width:1;" x1="338.6111" x2="341.0195" y1="309.7118" y2="302.0829"/><line style="stroke:#181818;stroke-width:1;" x1="340.7689" x2="333.14" y1="306.1984" y2="303.79"/><line style="stroke:#181818;stroke-width:1;" x1="671.0877" x2="680.2602" y1="394.1265" y2="390.1433"/><line style="stroke:#181818;stroke-width:1;" x1="671.0877" x2="677.4798" y1="394.1265" y2="401.8167"/><line style="stroke:#181818;stroke-width:1;" x1="671.0877" x2="678.87" y1="394.1265" y2="395.98"/><ellipse cx="665.251" cy="392.7363" fill="none" rx="4" ry="4" style="stroke:#181818;stroke-width:1;"/></g><!--link users to access_controls--><g id="link_users_access_controls"><path codeLine="61" d="M1293,138.16 C1293,159.71 1293,158.33 1293,179.88 " fill="none" id="users-access_controls" style="stroke:#181818;stroke-width:1;"/><line style="stroke:#181818;stroke-width:1;" x1="1293" x2="1287" y1="128.16" y2="120.16"/><line style="stroke:#181818;stroke-width:1;" x1="1293" x2="1299" y1="128.16" y2="120.16"/><line style="stroke:#181818;stroke-width:1;" x1="1293" x2="1293" y1="128.16" y2="120.16"/><ellipse cx="1293" cy="134.16" fill="none" rx="4" ry="4" style="stroke:#181818;stroke-width:1;"/><line style="stroke:#181818;stroke-width:1;" x1="1297" x2="1289" y1="183.88" y2="183.88"/><line style="stroke:#181818;stroke-width:1;" x1="1297" x2="1289" y1="180.88" y2="180.88"/><line style="stroke:#181818;stroke-width:1;" x1="1293" x2="1293" y1="179.88" y2="187.88"/></g><!--link organizations to access_controls--><g id="link_organizations_access_controls"><path codeLine="62" d="M815.9068,90.7515 C895.3968,113.2815 1008.79,146.25 1113,180 C1120.88,182.55 1111.87,179.499 1120,182.219 " fill="none" id="organizations-access_controls" style="stroke:#181818;stroke-width:1;"/><line style="stroke:#181818;stroke-width:1;" x1="810.9676" x2="813.1492" y1="93.5092" y2="85.8124"/><line style="stroke:#181818;stroke-width:1;" x1="813.854" x2="816.0355" y1="94.3272" y2="86.6304"/><line style="stroke:#181818;stroke-width:1;" x1="815.9068" x2="808.21" y1="90.7515" y2="88.57"/><line style="stroke:#181818;stroke-width:1;" x1="1129.4833" x2="1138.9737" y1="185.3918" y2="182.24"/><line style="stroke:#181818;stroke-width:1;" x1="1129.4833" x2="1135.1663" y1="185.3918" y2="193.62"/><line style="stroke:#181818;stroke-width:1;" x1="1129.4833" x2="1137.07" y1="185.3918" y2="187.93"/><ellipse cx="1123.7933" cy="183.4881" fill="none" rx="4" ry="4" style="stroke:#181818;stroke-width:1;"/></g><!--link organizations to organization_settings--><g id="link_organizations_organization_settings"><path codeLine="63" d="M665.233,117.7008 C640.363,141.0108 629.2747,151.4023 603.3847,175.6623 " fill="none" id="organizations-organization_settings" style="stroke:#181818;stroke-width:1;"/><line style="stroke:#181818;stroke-width:1;" x1="665.4161" x2="670.8869" y1="112.0469" y2="117.8839"/><line style="stroke:#181818;stroke-width:1;" x1="663.2273" x2="668.6981" y1="114.0985" y2="119.9355"/><line style="stroke:#181818;stroke-width:1;" x1="665.233" x2="671.07" y1="117.7008" y2="112.23"/><line style="stroke:#181818;stroke-width:1;" x1="596.0876" x2="594.3526" y1="182.4999" y2="192.3482"/><line style="stroke:#181818;stroke-width:1;" x1="596.0876" x2="586.1474" y1="182.4999" y2="183.5918"/><line style="stroke:#181818;stroke-width:1;" x1="596.0876" x2="590.25" y1="182.4999" y2="187.97"/><ellipse cx="600.4659" cy="178.3973" fill="none" rx="4" ry="4" style="stroke:#181818;stroke-width:1;"/></g><!--SRC=[hLFRJeD047tdApPzCMd43_3111LZKsrhGur9qv0DJDkDm9ATHLDB_zrbIsMXr60ZBvlCEJFdp0L899CRqiiG1FR8rYBgwnCMacio67baFXakTCoszGCnPP72NftftQCp9VFPQF0oS_USb29-SX7wQuhhYgGnmICmGZlBWbAQYnLDs1ULZ2TTB2GqXaRnG02L4FfKAk3UyLnlyEoQ6ak5PmByPKHNPsg4W85WQU5I8PxxvkamIbKPLUHsF7vodP4EcYtvbSZ3aDWtDH2lMBWmZT8iPDAFU2UNnTAEokjDwh85nMpyY5gRoayA3SeUpUubYq6r6gSd1ao3013zW2TIRVgVpFznZFe4GSGCiOYrNvkMDNChgmr7a-4bQNFLF-MhIlXrnRLi12bPqcdRPqoZhEw_mwQnpmFoGQCC3lUiJ5wGAKJxAckMegLR9pjkstbEZcPdrMIxqlBSjlcsVdsbK0bLVu5LOxNWDOEDAspNxKHgNT8t]--></g></svg>